<svg xmlns="http://www.w3.org/2000/svg" width="56" height="56" viewBox="0 0 56 56" role="img" aria-label="Ikon piala lomba">
  <rect width="56" height="56" rx="16" fill="#FFF3DE"/>
  <path d="M20 16 h16 v10 a8 8 0 0 1 -16 0 z" fill="#FFB443"/>
  <rect x="26" y="34" width="4" height="8" fill="#FFB443"/>
  <rect x="20" y="42" width="16" height="5" rx="2" fill="#F4A93B"/>
  <path d="M20 18 h-6 a2 2 0 0 0 -2 2 v2 a6 6 0 0 0 8 5.6" fill="none" stroke="#F4A93B" stroke-width="2.5"/>
  <path d="M36 18 h6 a2 2 0 0 1 2 2 v2 a6 6 0 0 1 -8 5.6" fill="none" stroke="#F4A93B" stroke-width="2.5"/>
</svg>
